<svg width="33" height="35" viewBox="0 0 33 35" fill="none" xmlns="http://www.w3.org/2000/svg">
<path d="M18.1445 11.3064L8.80111 1.99594L28.9395 9.69976C29.6331 9.96512 29.8288 10.8536 29.3043 11.3566L23.9773 16.4653C23.5771 16.8491 23.5806 17.4932 23.9851 17.8921L31.9531 25.7508L14.4653 18.989C13.8073 18.7346 13.5917 17.91 14.0476 17.3922L18.2047 12.6707C18.5488 12.28 18.5224 11.683 18.1445 11.3064Z" fill="#AAAAAA"/>
<path d="M8.69058 24.8504L6.9 10.272L3.39511 34.9299L27.955 25.7508L9.70976 25.7508C9.19423 25.7508 8.75333 25.3613 8.69058 24.8504Z" fill="#AAAAAA"/>
<path d="M19.6396 9.91448L8.50014 1.85L29.3593 9.2251C30.07 9.47639 30.2813 10.3802 29.7488 10.891L24.8313 15.6069C24.4631 15.96 24.4325 16.5409 24.7607 16.9472L31.913 25.8L15.6391 17.5277C15.0284 17.2173 14.8837 16.4121 15.3529 15.9348L19.7878 11.423C20.2114 10.9921 20.1412 10.2776 19.6396 9.91448Z" fill="url(#paint0_linear)"/>
<path d="M10.5292 23.4681L7.65425 4.54747L4.22788 31.8978L28.3661 25.7L11.4634 24.3368C10.9901 24.2987 10.6004 23.9362 10.5292 23.4681Z" fill="url(#paint1_linear)"/>
<defs>
<linearGradient id="paint0_linear" x1="24.5604" y1="25.9477" x2="3.33767" y2="8.7657" gradientUnits="userSpaceOnUse">
<stop offset="0.135417" stop-color="#242424"/>
<stop offset="1" stop-color="#242424" stop-opacity="0"/>
</linearGradient>
<linearGradient id="paint1_linear" x1="24.5604" y1="25.9477" x2="3.33767" y2="8.7657" gradientUnits="userSpaceOnUse">
<stop offset="0.135417" stop-color="#242424"/>
<stop offset="1" stop-color="#242424" stop-opacity="0"/>
</linearGradient>
</defs>
</svg>
